<?xml version="1.0" encoding="UTF-8"?> <svg xmlns="http://www.w3.org/2000/svg" id="Layer_1" data-name="Layer 1" viewBox="0 0 500 90.31"><defs><style>.cls-1{fill:#1a1a1a;}.cls-2{fill:#a5307c;}.cls-3{fill:#e63888;}.cls-4{fill:#512179;}.cls-5{fill:#833177;}.cls-6{fill:#fff;}</style></defs><path class="cls-1" d="M128,65h8.45V32.9c0-2,.08-3.41.08-3.41s-.82.88-2.69,2.76l-4.64,4.39L123,30.13l14.49-13.92h9.21V65h8.44a1.27,1.27,0,0,1,1.27,1.28V74H126.76V66.26A1.27,1.27,0,0,1,128,65Z"></path><path class="cls-1" d="M161.64,45c0-16.61,5.13-29.8,20.92-29.8s21,13.19,21,29.8-5.21,30-21,30S161.64,61.64,161.64,45Zm31.1,0c0-11.24-2.28-20.11-10.18-20.11S172.39,33.79,172.39,45c0,11.4,2.28,20.36,10.17,20.36S192.74,56.43,192.74,45Z"></path><path class="cls-1" d="M211.44,45c0-16.61,5.13-29.8,20.93-29.8s21,13.19,21,29.8-5.21,30-21,30S211.44,61.64,211.44,45Zm31.11,0c0-11.24-2.28-20.11-10.18-20.11S222.19,33.79,222.19,45c0,11.4,2.28,20.36,10.18,20.36S242.55,56.43,242.55,45Z"></path><path class="cls-1" d="M261.25,45c0-16.61,5.13-29.8,20.93-29.8s21,13.19,21,29.8-5.21,30-21,30S261.25,61.64,261.25,45Zm31.11,0c0-11.24-2.28-20.11-10.18-20.11S272,33.79,272,45c0,11.4,2.28,20.36,10.18,20.36S292.36,56.43,292.36,45Z"></path><path class="cls-1" d="M315.05,59.2s6.27,6.11,14.41,6.11c4.4,0,8.39-2.28,8.39-7,0-10.35-27.28-8.55-27.28-26.31,0-9.61,8.31-16.77,19.38-16.77a26.22,26.22,0,0,1,15.3,4.57,2.85,2.85,0,0,1,.87,3.67L342.65,30s-5.53-5-12.78-5c-4.89,0-8.71,2.85-8.71,6.92,0,10.26,27.19,7.74,27.19,26.22,0,9.2-7,16.94-19.05,16.94a28.86,28.86,0,0,1-17.93-6.08,2.85,2.85,0,0,1-.53-3.89Z"></path><path class="cls-1" d="M356.2,41.37h-5.38V33.14h5.62v-10a2,2,0,0,1,2-2h8.12v12H376v8.23h-9.44V57.49c0,6.84,5.37,7.82,8.22,7.82a9.8,9.8,0,0,0,1.88-.16v9a17.6,17.6,0,0,1-3.18.25c-5.78,0-17.26-1.71-17.26-15.64Z"></path><path class="cls-1" d="M401.15,31.51c12,0,18.4,8.72,18.4,19.71,0,.57-.05,1.46-.11,2.26a1.86,1.86,0,0,1-1.86,1.73H390.64c.65,7.25,6.27,11,12.46,11a19.62,19.62,0,0,0,10.34-3.36,1.85,1.85,0,0,1,2.64.68l3,5.54A26,26,0,0,1,402.37,75c-13.76,0-22.32-9.94-22.32-21.74C380.05,40.47,388.77,31.51,401.15,31.51Zm8,16.62c-.17-5.62-3.67-8.64-8.23-8.64-5.29,0-9,3.26-9.93,8.64Z"></path><path class="cls-1" d="M426.49,32.49H434v3a24.6,24.6,0,0,1-.17,2.85H434s3.58-6.84,13.35-6.84c11.24,0,18.4,8.88,18.4,21.75,0,13.19-8.06,21.74-19,21.74a14.33,14.33,0,0,1-11.89-5.7h-.16s.16,1.46.16,3.58V90.31H424.57V34.41A1.92,1.92,0,0,1,426.49,32.49Zm18.44,33.8c5.7,0,10.42-4.65,10.42-12.87,0-7.9-4.23-13-10.34-13-5.38,0-10.43,3.91-10.43,13.11C434.58,59.93,438.09,66.29,444.93,66.29Z"></path><path class="cls-1" d="M472.72,61.64A17.37,17.37,0,0,0,484,66.2c2.93,0,5.46-1.3,5.46-3.74,0-6.19-20.2-5.38-20.2-18.73,0-7.74,6.92-12.22,15.88-12.22A21.46,21.46,0,0,1,498,35.3a1.71,1.71,0,0,1,.51,2.16l-3.21,6.43a15.79,15.79,0,0,0-10.18-3.58c-2.69,0-5.3,1.14-5.3,3.75,0,5.86,20.2,5.13,20.2,18.48C500,69.46,494,75,484.12,75a23.91,23.91,0,0,1-14.94-5.06,1.73,1.73,0,0,1-.37-2.3Z"></path><path class="cls-2" d="M59.21,26.44a2.28,2.28,0,0,1,1.94,1.13l4,7L72,23.07H25A6.05,6.05,0,0,0,19,29.12V43.37H47.45l9.8-15.86A2.23,2.23,0,0,1,59.21,26.44Z"></path><path class="cls-2" d="M67.12,40.17a2.28,2.28,0,0,1-2,1.12h0a2.3,2.3,0,0,1-2-1.14l-4.08-7L52.8,43.37H90.31V23.07h-13Z"></path><path class="cls-3" d="M85.37,0H33C30.23,0,28,2.82,28,6.29v14H73.62l4.54-7.65-2.9-1.73a1,1,0,0,1,0-1.78l9.6-5.39a1,1,0,0,1,1.53.91l-.13,11a1,1,0,0,1-1.55.87L82.07,15,78.91,20.3h11.4v-14C90.31,2.82,88.1,0,85.37,0Z"></path><path class="cls-4" d="M11.27,90.31H84A6.29,6.29,0,0,0,90.31,84V69.2H23.88Z"></path><path class="cls-4" d="M6.05,69.2a6.05,6.05,0,0,0-6,6.06v15H6L18.59,69.2Z"></path><path class="cls-5" d="M32.93,47.52a2.27,2.27,0,0,1,1.94,1.28l4.07,8.34,6.8-11H15.29a6.06,6.06,0,0,0-6,6.06V66.43h11l10.64-17.8A2.28,2.28,0,0,1,32.93,47.52Z"></path><path class="cls-5" d="M40.64,63a2.26,2.26,0,0,1-2,1.08,2.28,2.28,0,0,1-1.93-1.27l-4-8.28L25.54,66.43H90.31V46.13H51.09Z"></path><path class="cls-6" d="M63.2,40.15a2.3,2.3,0,0,0,2,1.14h0a2.28,2.28,0,0,0,2-1.12l10.15-17.1H72L65.19,34.52l-4-7a2.28,2.28,0,0,0-1.94-1.13,2.23,2.23,0,0,0-2,1.07l-9.8,15.86H52.8l6.32-10.24Z"></path><polygon class="cls-6" points="18.59 69.2 5.97 90.31 11.27 90.31 23.88 69.2 18.59 69.2"></polygon><path class="cls-6" d="M36.66,62.85a2.28,2.28,0,0,0,1.93,1.27,2.26,2.26,0,0,0,2-1.08L51.09,46.13H45.74l-6.8,11L34.87,48.8a2.26,2.26,0,0,0-4-.17L20.24,66.43h5.3l7.09-11.86Z"></path><path class="cls-6" d="M84.73,16.54a1,1,0,0,0,1.55-.87l.13-11a1,1,0,0,0-1.53-.91l-9.6,5.39a1,1,0,0,0,0,1.78l2.9,1.73L73.62,20.3h5.29L82.07,15Z"></path></svg> 