<svg xmlns="http://www.w3.org/2000/svg" xmlns:xlink="http://www.w3.org/1999/xlink" version="1.1" x="0px" y="0px" viewBox="0 0 64 80" xml:space="preserve"><g><polygon points="22.7,41.3 33.9,36.5 27.5,30.1  "/><path d="M45.3,4H18.7C10.6,4,4,10.6,4,18.7v26.6C4,53.4,10.6,60,18.7,60h26.6C53.4,60,60,53.4,60,45.3V18.7C60,10.6,53.4,4,45.3,4z    M46.4,20l-7.6,17.8c-0.1,0.3-0.3,0.5-0.5,0.7c-0.1,0.1-0.3,0.2-0.4,0.2L20,46.4c-0.7,0.3-1.5,0.1-2-0.4c-0.5-0.5-0.7-1.3-0.4-2   l7.6-17.8c0.2-0.4,0.5-0.7,0.9-0.9L44,17.6c0.7-0.3,1.5-0.1,2,0.4S46.7,19.3,46.4,20z"/></g></svg>