<?xml version="1.0" encoding="utf-8"?>
<!-- Generator: Adobe Illustrator 24.1.0, SVG Export Plug-In . SVG Version: 6.00 Build 0)  -->
<svg version="1.1" id="Layer_1" xmlns="http://www.w3.org/2000/svg" xmlns:xlink="http://www.w3.org/1999/xlink" x="0px" y="0px"
	 viewBox="0 0 1366 768" style="enable-background:new 0 0 1366 768;" xml:space="preserve">
<style type="text/css">
	.st0{clip-path:url(#SVGID_2_);}
	.st1{opacity:0.3;}
	.st2{fill:none;stroke:#FFFFFF;stroke-width:0.9749;stroke-miterlimit:10;}
	.st3{opacity:0.2;}
	.st4{fill:#FFFFFF;}
	.st5{fill:none;stroke:#FFFFFF;stroke-width:2.4238;stroke-miterlimit:10;}
	.st6{fill:none;stroke:#FFFFFF;stroke-width:1.7115;stroke-miterlimit:10;}
	.st7{fill:none;stroke:#FFFFFF;stroke-width:1.9341;stroke-miterlimit:10;}
	.st8{fill:none;stroke:#FFFFFF;stroke-width:1.8279;stroke-miterlimit:10;}
	.st9{fill:none;stroke:#FFFFFF;stroke-width:2.8034;stroke-miterlimit:10;}
	.st10{fill:none;stroke:#FFFFFF;stroke-width:2.2075;stroke-miterlimit:10;}
	.st11{fill:none;stroke:#FFFFFF;stroke-width:2.2313;stroke-miterlimit:10;}
</style>
<g id="Layer_2_1_">
	<g id="content">
		<g>
			<defs>
				<rect id="SVGID_1_" width="1366" height="768"/>
			</defs>
			<clipPath id="SVGID_2_">
				<use xlink:href="#SVGID_1_"  style="overflow:visible;"/>
			</clipPath>
			<g class="st0">
				<g>
					<g class="st1">
						<polygon class="st2" points="1927.3,283.3 1728.8,525.2 1777.9,354.1 						"/>
						<polygon class="st2" points="1629.5,332.9 1728.8,525.2 1777.9,354.1 						"/>
						<polygon class="st2" points="1740,410.6 1860.4,756.2 1855.3,398.7 						"/>
						<polygon class="st2" points="1728.8,525.2 1629.5,332.9 1660.5,550.1 						"/>
						<polygon class="st2" points="1728.8,525.2 1758.4,689.1 1660.5,550.1 						"/>
						<polygon class="st2" points="1728.8,525.2 1758.4,689.1 1940.8,627.1 						"/>
						<polygon class="st2" points="1396.7,662.2 1629.5,332.9 1660.5,550.1 						"/>
						<polygon class="st2" points="1660.5,550.1 1396.7,662.2 1662.8,591.2 						"/>
						<polygon class="st2" points="1660.5,550.1 1396.7,662.2 1361.1,467.8 						"/>
						<polygon class="st2" points="1146.7,540.2 1396.7,662.2 1361.1,467.8 						"/>
						<polyline class="st2" points="1361.1,467.8 1439,503 1396.7,662.2 						"/>
						<polygon class="st2" points="1146.7,540.2 1361.1,467.8 1220.5,350.6 						"/>
						<polygon class="st2" points="1146.7,540.2 1137.1,409.2 1220.5,350.6 						"/>
						<polygon class="st2" points="1388.2,251.8 1361.1,467.8 1220.5,350.6 						"/>
						<polygon class="st2" points="1388.2,251.8 1214.3,276.9 1220.5,350.6 						"/>
						<polygon class="st2" points="1465.9,496.6 1361.1,467.8 1220.5,350.6 						"/>
						<polygon class="st2" points="1660.5,550.1 1742.3,739.2 1562.6,757.1 						"/>
						<polygon class="st2" points="1660.5,550.1 1826.9,747.5 1613.4,640.6 						"/>
						<polygon class="st2" points="1777.9,354.1 1927.3,283.3 1629.5,332.9 						"/>
						<polygon class="st2" points="1260.5,460.9 1702.8,356 1740,410.6 						"/>
						<polygon class="st2" points="1855.9,437.5 1701.2,564.8 1455.5,474 						"/>
						<polyline class="st2" points="1940.8,627.1 2026.2,267.1 1798.1,620.8 1938,624.3 2015.5,558.9 						"/>
						<polygon class="st2" points="2015.5,558.9 1855.3,398.7 2172.4,395.4 						"/>
						<polygon class="st2" points="1806.4,221 1606.9,496.4 1938,624.3 						"/>
						<polyline class="st2" points="1606.9,496.4 1553,353.1 1806.4,221 						"/>
						<polygon class="st2" points="1236.3,592.6 1137.1,409.2 1083.3,675.3 						"/>
						<polygon class="st2" points="1083.3,675.3 1024,647.7 1153.6,472.6 						"/>
						<polygon class="st2" points="1063.3,507.8 1455.5,474 1094.6,552.4 						"/>
						<polygon class="st2" points="962.3,224.1 1063.3,507.8 1220.5,350.6 						"/>
						<polygon class="st2" points="808.3,347.9 970.9,520.2 962.3,224.1 						"/>
						<polygon class="st2" points="808.3,347.9 898.9,177.3 962.3,224.1 						"/>
						<polygon class="st2" points="1096.4,196.2 970.9,520.2 783.6,548.9 						"/>
						<polygon class="st2" points="1153.6,472.6 759.6,507.8 940.1,345.6 						"/>
						<polygon class="st2" points="783.6,548.9 1024,647.7 1153.6,472.6 						"/>
					</g>
					<g class="st3">
						<polygon class="st2" points="1546.6,688.2 1348.1,930.2 1397.2,759 						"/>
						<polygon class="st2" points="1248.8,737.8 1348.1,930.2 1397.2,759 						"/>
						<polygon class="st2" points="1359.3,815.5 1479.7,1161.1 1474.6,803.6 						"/>
						<polygon class="st2" points="1348.1,930.2 1248.8,737.8 1279.8,955 						"/>
						<polygon class="st2" points="1348.1,930.2 1377.7,1094 1279.8,955 						"/>
						<polygon class="st2" points="1348.1,930.2 1377.7,1094 1560,1032 						"/>
						<polygon class="st2" points="1015.9,1067.1 1248.8,737.8 1279.8,955 						"/>
						<polygon class="st2" points="1279.8,955 1015.9,1067.1 1282.1,996.2 						"/>
						<polygon class="st2" points="1279.8,955 1015.9,1067.1 980.4,872.7 						"/>
						<polygon class="st2" points="766,945.1 1015.9,1067.1 980.4,872.7 						"/>
						<polyline class="st2" points="980.4,872.7 1058.3,907.9 1015.9,1067.1 						"/>
						<polygon class="st2" points="766,945.1 980.4,872.7 839.8,755.5 						"/>
						<polygon class="st2" points="766,945.1 756.3,814.1 839.8,755.5 						"/>
						<polygon class="st2" points="1007.5,656.7 980.4,872.7 839.8,755.5 						"/>
						<polygon class="st2" points="1007.5,656.7 833.6,681.8 839.8,755.5 						"/>
						<polygon class="st2" points="1085.2,901.5 980.4,872.7 839.8,755.5 						"/>
						<polygon class="st2" points="1279.8,955 1361.6,1144.1 1181.9,1162 						"/>
						<polygon class="st2" points="1279.8,955 1446.2,1152.4 1232.7,1045.5 						"/>
						<polygon class="st2" points="1397.2,759 1546.6,688.2 1248.8,737.8 						"/>
						<polygon class="st2" points="879.7,865.8 1322.1,760.9 1359.3,815.5 						"/>
						<polygon class="st2" points="1475.2,842.4 1320.5,969.7 1074.8,878.9 						"/>
						<polyline class="st2" points="1560,1032 1645.5,672 1417.4,1025.7 1557.3,1029.3 1634.8,963.8 						"/>
						<polygon class="st2" points="1634.8,963.8 1474.6,803.6 1791.7,800.3 						"/>
						<polygon class="st2" points="1425.7,625.9 1226.1,901.3 1557.3,1029.3 						"/>
						<polyline class="st2" points="1226.1,901.3 1172.3,758 1425.7,625.9 						"/>
						<polygon class="st2" points="855.6,997.5 756.3,814.1 702.6,1080.2 						"/>
						<polygon class="st2" points="702.6,1080.2 643.3,1052.6 772.9,877.5 						"/>
						<polygon class="st2" points="682.6,912.7 1074.8,878.9 713.8,957.3 						"/>
						<polygon class="st2" points="581.6,644 682.6,912.7 839.8,755.5 						"/>
						<polygon class="st2" points="427.5,752.8 590.2,925.1 581.6,644 						"/>
						<polygon class="st2" points="427.5,752.8 518.1,597.2 581.6,644 						"/>
						<polygon class="st2" points="715.7,601.1 590.2,925.1 377.9,945.8 						"/>
						<polygon class="st2" points="772.9,877.5 366.9,912.7 559.4,750.5 						"/>
						<polygon class="st2" points="377.9,945.8 643.3,1052.6 772.9,877.5 						"/>
					</g>
					<g>
						<path class="st4" d="M1558.6,761.1c-2.2-2.2-2.2-5.9,0-8.1s5.9-2.2,8.1,0c2.2,2.2,2.2,5.9,0,8.1
							C1564.4,763.4,1560.8,763.4,1558.6,761.1C1558.6,761.1,1558.6,761.1,1558.6,761.1z"/>
						<path class="st4" d="M1723.2,530.8c-3.1-3.1-3.1-8,0-11.1c3.1-3.1,8-3.1,11.1,0c3.1,3.1,3.1,8,0,11.1
							C1731.3,533.9,1726.3,533.9,1723.2,530.8C1723.2,530.8,1723.2,530.8,1723.2,530.8z"/>
						<circle class="st4" cx="1662.6" cy="590.4" r="6.1"/>
						<path class="st4" d="M1656.2,554.3c-2.3-2.4-2.3-6.2,0.1-8.5c2.4-2.3,6.2-2.3,8.5,0.1c2.3,2.3,2.3,6.1,0,8.4
							C1662.5,556.7,1658.7,556.7,1656.2,554.3C1656.3,554.4,1656.3,554.4,1656.2,554.3z"/>
						
							<ellipse transform="matrix(0.7071 -0.7071 0.7071 0.7071 98.9191 1368.3254)" class="st4" cx="1701.2" cy="564.8" rx="9.6" ry="9.6"/>
						<path class="st4" d="M1737.8,743.7c-2.2-2.2-2.2-5.9,0-8.1s5.9-2.2,8.1,0c2.2,2.2,2.2,5.9,0,8.1
							C1743.7,745.9,1740,745.9,1737.8,743.7C1737.8,743.7,1737.8,743.7,1737.8,743.7z"/>
						<path class="st4" d="M1936,629.5c-1.9-2-1.9-5.1,0-7.1s5.1-1.9,7.1,0c1.9,2,1.9,5.1,0,7.1C1941.1,631.4,1938,631.4,1936,629.5
							C1936,629.5,1936,629.5,1936,629.5z"/>
						<circle class="st4" cx="2027.7" cy="266.6" r="7.5"/>
						<path class="st4" d="M1602.4,500.8c-2.5-2.5-2.5-6.4,0-8.9c2.5-2.5,6.4-2.5,8.9,0c2.5,2.5,2.5,6.4,0,8.9
							C1608.8,503.3,1604.9,503.3,1602.4,500.8C1602.4,500.8,1602.4,500.8,1602.4,500.8z"/>
						<path class="st4" d="M1924.9,285.7c-2.5-2.5-2.5-6.4,0-8.9c2.5-2.5,6.4-2.5,8.9,0c2.5,2.5,2.5,6.4,0,8.9
							C1931.3,288.1,1927.4,288.1,1924.9,285.7C1924.9,285.7,1924.9,285.7,1924.9,285.7z"/>
						<path class="st4" d="M1772.8,360.4c-2.8-2.8-2.8-7.3,0-10.1c2.8-2.8,7.3-2.8,10.1,0c2.8,2.8,2.8,7.3,0,10.1c0,0,0,0,0,0
							C1780.2,363.2,1775.6,363.2,1772.8,360.4C1772.8,360.4,1772.8,360.4,1772.8,360.4z"/>
						
							<ellipse transform="matrix(0.7071 -0.7071 0.7071 0.7071 219.6897 1350.7734)" class="st4" cx="1740.4" cy="410.2" rx="7.2" ry="7.1"/>
						
							<ellipse transform="matrix(0.7071 -0.7071 0.7071 0.7071 205.2155 1201.5685)" class="st4" cx="1553" cy="353.1" rx="7.2" ry="7.1"/>
						<circle class="st4" cx="1650.1" cy="299.4" r="7.2"/>
						<circle class="st4" cx="1707.3" cy="358.5" r="8.5"/>
						<circle class="st4" cx="1853.6" cy="400.4" r="8.7"/>
						<path class="st4" d="M1390.3,668.5c-3.5-3.5-3.5-9.2,0-12.7c3.5-3.5,9.2-3.5,12.7,0c3.5,3.5,3.5,9.2,0,12.7c0,0,0,0,0,0
							C1399.5,672,1393.8,672,1390.3,668.5z"/>
						<path class="st4" d="M1451.9,477.7c-3.5-3.5-3.5-9.2,0-12.7c3.5-3.5,9.2-3.5,12.7,0c3.5,3.5,3.5,9.2,0,12.7c0,0,0,0,0,0
							C1461,481.2,1455.4,481.2,1451.9,477.7z"/>
						<path class="st4" d="M1412.4,448.1c-4.6-4.6-4.6-11.9,0-16.5c4.6-4.6,11.9-4.6,16.5,0c4.6,4.6,4.6,11.9,0,16.5c0,0,0,0,0,0
							C1424.4,452.7,1417,452.7,1412.4,448.1C1412.4,448.2,1412.4,448.2,1412.4,448.1z"/>
						<path class="st4" d="M1216.1,355c-2.4-2.4-2.4-6.3,0-8.7c2.4-2.4,6.3-2.4,8.7,0c2.4,2.4,2.4,6.3,0,8.7
							C1222.4,357.4,1218.5,357.4,1216.1,355C1216.1,355,1216.1,355,1216.1,355z"/>
						<path class="st4" d="M1211.1,280c-1.7-1.7-1.7-4.6,0-6.3c1.7-1.7,4.6-1.7,6.3,0c1.7,1.7,1.7,4.6,0,6.3
							C1215.7,281.7,1212.9,281.8,1211.1,280C1211.1,280,1211.1,280,1211.1,280z"/>
						<path class="st4" d="M1133.4,411.9c-2-2-2-5.3,0-7.4c2-2,5.3-2,7.4,0s2,5.3,0,7.4c0,0,0,0,0,0
							C1138.7,413.9,1135.4,413.9,1133.4,411.9z"/>
						<path class="st4" d="M1142,544.9c-2.6-2.6-2.6-6.8,0-9.4c2.6-2.6,6.8-2.6,9.4,0c2.6,2.6,2.6,6.8,0,9.4
							C1148.8,547.5,1144.6,547.5,1142,544.9C1142,544.9,1142,544.9,1142,544.9z"/>
						<path class="st4" d="M1058.6,512.5c-2.6-2.6-2.6-6.8,0-9.4c2.6-2.6,6.8-2.6,9.4,0c2.6,2.6,2.6,6.8,0,9.4
							C1065.4,515.1,1061.2,515.1,1058.6,512.5C1058.6,512.5,1058.6,512.5,1058.6,512.5z"/>
						<path class="st4" d="M957.6,228.8c-2.6-2.6-2.6-6.8,0-9.4c2.6-2.6,6.8-2.6,9.4,0c2.6,2.6,2.6,6.8,0,9.4c0,0,0,0,0,0
							C964.4,231.4,960.2,231.4,957.6,228.8z"/>
						<path class="st4" d="M801.8,354.3c-3.7-3.7-3.7-9.7,0-13.4c3.7-3.7,9.7-3.7,13.4,0c3.7,3.7,3.7,9.7,0,13.4
							C811.5,358,805.5,358,801.8,354.3C801.8,354.3,801.8,354.3,801.8,354.3z"/>
						<path class="st4" d="M752.9,514.5c-3.7-3.7-3.7-9.7,0-13.5c3.7-3.7,9.7-3.7,13.5,0s3.7,9.7,0,13.5c0,0,0,0,0,0
							C762.6,518.2,756.6,518.2,752.9,514.5z"/>
						<path class="st4" d="M930.2,353.4c-4.3-4.3-4.3-11.3,0-15.6c4.3-4.3,11.3-4.3,15.6,0c4.3,4.3,4.3,11.3,0,15.6c0,0,0,0,0,0
							C941.5,357.7,934.5,357.7,930.2,353.4z"/>
						<path class="st4" d="M1091.7,200.9c-2.6-2.6-2.6-6.8,0-9.4c2.6-2.6,6.8-2.6,9.4,0c2.6,2.6,2.6,6.8,0,9.4
							C1098.5,203.5,1094.3,203.5,1091.7,200.9C1091.7,200.9,1091.7,200.9,1091.7,200.9z"/>
						<path class="st4" d="M1087.7,557.8c-3-3-3-7.8,0-10.8c3-3,7.8-3,10.8,0s3,7.8,0,10.8c0,0,0,0,0,0
							C1095.6,560.8,1090.7,560.8,1087.7,557.8z"/>
						<path class="st4" d="M512.3,604.7c-3.2-3.2-3.2-8.5,0-11.8c3.2-3.2,8.5-3.2,11.8,0c3.2,3.2,3.2,8.5,0,11.7
							C520.8,607.9,515.6,607.9,512.3,604.7z"/>
						<path class="st4" d="M1435.6,506.3c-1.9-1.9-1.9-4.9,0-6.7c1.9-1.9,4.9-1.9,6.7,0c1.9,1.9,1.9,4.9,0,6.7
							C1440.5,508.2,1437.5,508.2,1435.6,506.3C1435.7,506.3,1435.6,506.3,1435.6,506.3z"/>
						<path class="st4" d="M1419.8,567c-1.9-1.9-1.9-4.9,0-6.7s4.9-1.9,6.7,0c1.9,1.9,1.9,4.9,0,6.7
							C1424.6,568.9,1421.6,568.9,1419.8,567C1419.8,567,1419.8,567,1419.8,567z"/>
						<path class="st4" d="M965.8,525.3c-3-2.7-3.2-7.3-0.5-10.3s7.3-3.2,10.3-0.5c3,2.7,3.2,7.3,0.5,10.3c-0.1,0.1-0.2,0.2-0.3,0.3
							C973.1,527.9,968.6,528,965.8,525.3z"/>
					</g>
					<g class="st1">
						<path class="st4" d="M1224.5,310.1c1.8,2.6,1.2,6.2-1.3,8s-6.2,1.2-8-1.3c-1.8-2.6-1.2-6.1,1.3-8
							C1219.1,306.9,1222.7,307.5,1224.5,310.1C1224.5,310.1,1224.5,310.1,1224.5,310.1z"/>
						<path class="st4" d="M1024.5,510.5c2.5,3.5,1.7,8.4-1.8,10.9c-3.5,2.5-8.4,1.7-10.9-1.8c-2.5-3.5-1.7-8.4,1.8-10.9
							C1017.1,506.2,1021.9,507,1024.5,510.5C1024.5,510.5,1024.5,510.5,1024.5,510.5z"/>
						<path class="st4" d="M1099,458c1.9,2.7,1.3,6.5-1.4,8.4c-2.7,1.9-6.5,1.3-8.4-1.4c-1.9-2.7-1.3-6.5,1.4-8.4c0,0,0,0,0,0
							C1093.3,454.7,1097.1,455.3,1099,458z"/>
						<path class="st4" d="M1094.4,498.2c1.9,2.7,1.3,6.5-1.5,8.4c-2.7,1.9-6.5,1.3-8.4-1.5c-1.9-2.7-1.3-6.4,1.4-8.3
							C1088.6,494.8,1092.4,495.4,1094.4,498.2C1094.4,498.1,1094.4,498.2,1094.4,498.2z"/>
						<path class="st4" d="M1059.6,475c3.1,4.3,2.1,10.3-2.2,13.4c-4.3,3.1-10.3,2.1-13.4-2.2s-2.1-10.3,2.2-13.4c0,0,0,0,0,0
							C1050.5,469.7,1056.5,470.7,1059.6,475C1059.6,475,1059.6,475,1059.6,475z"/>
						<path class="st4" d="M1044.9,298.1c1.8,2.6,1.3,6.2-1.3,8c-2.6,1.8-6.2,1.3-8-1.3c-1.8-2.6-1.3-6.2,1.3-8c0,0,0,0,0,0
							C1039.4,294.9,1043,295.5,1044.9,298.1z"/>
						<path class="st4" d="M830.7,378.4c1.6,2.2,1.1,5.4-1.2,7c-2.2,1.6-5.4,1.1-7-1.2c-1.6-2.2-1.1-5.3,1.1-7
							C825.9,375.7,829,376.2,830.7,378.4C830.6,378.4,830.6,378.4,830.7,378.4z"/>
						<path class="st4" d="M687,717c2.4,3.4,1.6,8.1-1.7,10.5c-3.4,2.4-8.1,1.6-10.5-1.7c-2.4-3.4-1.6-8.1,1.7-10.5
							C679.9,712.9,684.6,713.6,687,717z"/>
						<path class="st4" d="M1138.8,559.8c2,2.8,1.4,6.8-1.5,8.8c-2.8,2-6.8,1.4-8.8-1.5c-2-2.8-1.4-6.7,1.4-8.8
							C1132.8,556.3,1136.7,556.9,1138.8,559.8C1138.8,559.7,1138.8,559.8,1138.8,559.8z"/>
						<path class="st4" d="M785.5,719.4c2,2.8,1.4,6.8-1.5,8.8c-2.8,2-6.8,1.4-8.8-1.5c-2-2.8-1.4-6.7,1.5-8.8
							C779.5,715.9,783.5,716.6,785.5,719.4C785.5,719.4,785.5,719.4,785.5,719.4z"/>
						<path class="st4" d="M947.7,670.5c2.3,3.2,1.5,7.7-1.7,10c-3.2,2.3-7.7,1.5-10-1.7c-2.3-3.2-1.6-7.7,1.6-10
							C940.9,666.6,945.4,667.3,947.7,670.5C947.7,670.5,947.7,670.5,947.7,670.5z"/>
						<path class="st4" d="M993.7,622.5c2.3,3.2,1.5,7.7-1.7,10c-3.2,2.3-7.7,1.5-10-1.7c-2.3-3.2-1.6-7.7,1.6-10
							C986.9,618.5,991.3,619.3,993.7,622.5C993.7,622.5,993.7,622.5,993.7,622.5z"/>
						<path class="st4" d="M1169.2,709.5c2.3,3.2,1.5,7.7-1.7,10c-3.2,2.3-7.7,1.5-10-1.7c-2.3-3.2-1.6-7.7,1.6-10
							C1162.4,705.5,1166.8,706.2,1169.2,709.5C1169.2,709.4,1169.2,709.4,1169.2,709.5z"/>
						<path class="st4" d="M1064.7,746.5c2.3,3.2,1.5,7.7-1.7,10c-3.2,2.3-7.7,1.5-10-1.7c-2.3-3.2-1.6-7.7,1.6-10
							C1057.9,742.6,1062.3,743.3,1064.7,746.5C1064.6,746.5,1064.7,746.5,1064.7,746.5z"/>
						<path class="st4" d="M1019,678.1c2.7,3.8,1.8,9.1-2,11.8c-3.8,2.7-9.1,1.8-11.8-2c-2.7-3.8-1.8-9.1,2-11.8
							C1011,673.4,1016.3,674.3,1019,678.1C1019,678.1,1019,678.1,1019,678.1z"/>
						<path class="st4" d="M881.7,612.7c2.8,3.9,1.9,9.4-2,12.2s-9.4,1.9-12.2-2c-2.8-3.9-1.9-9.4,2-12.2
							C873.4,607.9,878.9,608.8,881.7,612.7z"/>
						<path class="st4" d="M1331.4,349.9c2.9,4,2,9.7-2,12.6c-4,2.9-9.7,2-12.6-2c-2.9-4-2-9.7,2-12.6c0,0,0,0,0,0
							C1322.9,345,1328.5,345.9,1331.4,349.9z"/>
						<path class="st4" d="M1273.5,676.2c2.9,4,2,9.7-2,12.6c-4,2.9-9.7,2-12.6-2c-2.9-4-2-9.7,2-12.6c0,0,0,0,0,0
							C1265,671.3,1270.6,672.2,1273.5,676.2z"/>
						<path class="st4" d="M1482.8,648.8c3.7,5.2,2.5,12.5-2.7,16.3c-5.2,3.7-12.5,2.5-16.3-2.7c-3.7-5.2-2.5-12.5,2.7-16.2
							C1471.8,642.4,1479.1,643.6,1482.8,648.8C1482.8,648.8,1482.8,648.8,1482.8,648.8z"/>
						<path class="st4" d="M1496.1,766.7c2,2.8,1.3,6.6-1.4,8.6c-2.8,2-6.6,1.3-8.6-1.4c-2-2.8-1.3-6.6,1.4-8.6
							C1490.3,763.3,1494.1,763.9,1496.1,766.7C1496.1,766.7,1496.1,766.7,1496.1,766.7z"/>
						<path class="st4" d="M1488.8,841.5c1.5,2,1,4.8-1,6.2c-2,1.5-4.8,1-6.2-1c-1.5-2-1-4.8,1-6.2c0,0,0,0,0,0
							C1484.6,839.1,1487.3,839.5,1488.8,841.5z"/>
						<path class="st4" d="M1587,724.1c1.7,2.3,1.1,5.6-1.2,7.3c-2.3,1.7-5.6,1.1-7.3-1.2c-1.7-2.3-1.1-5.6,1.2-7.3
							C1582.1,721.2,1585.3,721.8,1587,724.1C1587,724.1,1587,724.1,1587,724.1z"/>
						<path class="st4" d="M1600.2,591.5c2.1,3,1.5,7.2-1.5,9.3s-7.2,1.5-9.3-1.5c-2.1-3-1.5-7.2,1.5-9.3c0,0,0,0,0,0
							C1593.9,587.8,1598.1,588.5,1600.2,591.5z"/>
						<path class="st4" d="M1677.2,637c2.1,3,1.5,7.2-1.5,9.3s-7.2,1.5-9.3-1.5c-2.1-3-1.5-7.2,1.5-9.3c0,0,0,0,0,0
							C1670.9,633.3,1675.1,634,1677.2,637z"/>
						<path class="st4" d="M1573.1,671.6c2.5,3.4,1.7,8.2-1.8,10.7c-3.4,2.5-8.2,1.7-10.7-1.8c-2.5-3.4-1.7-8.2,1.8-10.7
							C1565.8,667.4,1570.6,668.2,1573.1,671.6C1573.1,671.6,1573.1,671.6,1573.1,671.6z"/>
						<path class="st4" d="M1319.2,836.1c2.7,3.7,1.8,8.9-1.9,11.6c-3.7,2.7-8.9,1.8-11.6-1.9c-2.7-3.7-1.8-8.9,1.9-11.6
							c0,0,0,0,0,0C1311.3,831.5,1316.5,832.3,1319.2,836.1z"/>
						<path class="st4" d="M1304.2,581.6c1.5,2.1,1,5.1-1.1,6.6c-2.1,1.5-5.1,1-6.6-1.1c-1.5-2.1-1-5.1,1.1-6.6c0,0,0,0,0,0
							C1299.7,579,1302.7,579.5,1304.2,581.6z"/>
						<path class="st4" d="M1329.8,524.3c1.5,2.1,1,5.1-1.1,6.6c-2.1,1.5-5.1,1-6.6-1.1c-1.5-2.1-1-5.1,1.1-6.6
							C1325.3,521.7,1328.2,522.2,1329.8,524.3C1329.8,524.3,1329.8,524.3,1329.8,524.3z"/>
						<path class="st4" d="M1770.8,639.5c2.5,3.2,2,7.7-1.2,10.2c-3.2,2.5-7.7,2-10.2-1.2c-2.5-3.2-2-7.7,1.2-10.2
							c0.1-0.1,0.2-0.1,0.3-0.2C1764,635.8,1768.5,636.4,1770.8,639.5C1770.8,639.5,1770.8,639.5,1770.8,639.5z"/>
					</g>
					<g>
						<g>
							<circle class="st5" cx="1758.4" cy="689.1" r="10"/>
							<path class="st4" d="M1753.9,684.6c2.5-2.5,6.5-2.5,9,0c2.5,2.5,2.5,6.5,0,9c-2.5,2.5-6.5,2.5-9,0c0,0,0,0,0,0
								C1751.4,691.1,1751.4,687.1,1753.9,684.6z"/>
						</g>
						<g>
							<circle class="st5" cx="1613.4" cy="640.6" r="10"/>
							<path class="st4" d="M1608.9,636.1c2.5-2.5,6.5-2.5,9,0s2.5,6.5,0,9c-2.5,2.5-6.5,2.5-8.9,0
								C1606.4,642.7,1606.4,638.6,1608.9,636.1C1608.9,636.2,1608.9,636.1,1608.9,636.1z"/>
						</g>
						<g>
							<path class="st6" d="M1742.8,764.2c-2.7-2.8-2.7-7.2,0.1-9.9c2.8-2.7,7.2-2.7,9.9,0.1c2.7,2.7,2.7,7.1,0,9.8
								c-2.7,2.8-7.1,2.8-9.9,0.1C1742.9,764.2,1742.9,764.2,1742.8,764.2z"/>
							<path class="st4" d="M1744.7,756c1.7-1.7,4.6-1.7,6.3,0s1.7,4.6,0,6.3c-1.7,1.7-4.6,1.7-6.3,0
								C1742.9,760.6,1742.9,757.7,1744.7,756z"/>
						</g>
						<g>
							<circle class="st5" cx="1805.9" cy="220.5" r="10"/>
							<path class="st4" d="M1801.4,216c2.5-2.5,6.5-2.4,9,0c2.5,2.5,2.4,6.5,0,9c-2.5,2.4-6.4,2.4-8.9,0
								C1798.9,222.5,1798.9,218.5,1801.4,216C1801.4,216,1801.4,216,1801.4,216z"/>
						</g>
						<g>
							<path class="st7" d="M1561.1,393.7c-3.1-3.1-3.2-8.2-0.1-11.3c3.1-3.1,8.2-3.2,11.3-0.1c3.1,3.1,3.2,8.2,0.1,11.3
								c0,0,0,0-0.1,0.1C1569.2,396.8,1564.2,396.8,1561.1,393.7C1561.1,393.7,1561.1,393.7,1561.1,393.7z"/>
							<path class="st4" d="M1563.1,384.5c2-2,5.2-2,7.1,0c2,2,2,5.2,0,7.1c-2,2-5.2,2-7.1,0
								C1561.2,389.7,1561.2,386.5,1563.1,384.5z"/>
						</g>
						<g>
							<circle class="st8" cx="1283.7" cy="607.4" r="7.5"/>
							<path class="st4" d="M1280.4,604.1c1.9-1.9,4.9-1.9,6.8,0c1.9,1.9,1.9,4.9,0,6.8c-1.9,1.9-4.9,1.9-6.8,0c0,0,0,0,0,0
								C1278.6,609,1278.6,606,1280.4,604.1C1280.4,604.1,1280.4,604.1,1280.4,604.1z"/>
						</g>
						<g>
							<path class="st9" d="M1010.8,655.9c-4.5-4.5-4.5-11.8,0-16.3c4.5-4.5,11.8-4.5,16.3,0c4.5,4.5,4.5,11.8,0,16.3
								C1022.6,660.4,1015.3,660.4,1010.8,655.9z"/>
							<path class="st4" d="M1013.8,642.5c2.9-2.9,7.5-2.9,10.4,0c2.9,2.9,2.9,7.5,0,10.4c-2.9,2.9-7.5,2.9-10.4,0c0,0,0,0,0,0
								C1010.9,650,1010.9,645.4,1013.8,642.5z"/>
						</g>
						<g>
							<circle class="st10" cx="1153.6" cy="472.6" r="9.1"/>
							<path class="st4" d="M1149.5,468.5c2.3-2.2,5.9-2.2,8.1,0s2.2,5.9,0,8.1c-2.2,2.2-5.9,2.2-8.1,0
								C1147.3,474.5,1147.3,470.8,1149.5,468.5C1149.5,468.6,1149.5,468.6,1149.5,468.5z"/>
						</g>
						<g>
							<path class="st11" d="M777,555.2c-3.6-3.6-3.6-9.4,0-13c3.6-3.6,9.4-3.6,13,0c3.6,3.6,3.6,9.4,0,13
								C786.4,558.8,780.6,558.8,777,555.2C777,555.2,777,555.2,777,555.2z"/>
							<path class="st4" d="M779.3,544.6c2.3-2.3,6-2.3,8.2,0c2.3,2.3,2.3,6,0,8.2c-2.3,2.3-6,2.3-8.2,0
								C777.1,550.6,777.1,546.9,779.3,544.6z"/>
						</g>
					</g>
				</g>
			</g>
		</g>
	</g>
</g>
</svg>
